#tb 0: 1/25
#media_type 0: video
#codec_id 0: rawvideo
#dimensions 0: 352x288
#sar 0: 0/1
0,          0,          0,        1,   152064, 0x3e39c08b
0,          1,          1,        1,   152064, 0xabc67990
0,          2,          2,        1,   152064, 0x19614e74
0,          3,          3,        1,   152064, 0xa3776beb
0,          4,          4,        1,   152064, 0xcce6ffdf
0,          5,          5,        1,   152064, 0xb0e94746
0,          6,          6,        1,   152064, 0xdb1a84ef
0,          7,          7,        1,   152064, 0xb2624509
0,          8,          8,        1,   152064, 0x32e2d826
0,          9,          9,        1,   152064, 0xb3bddf0b
0,         10,         10,        1,   152064, 0x2e273ce3
0,         11,         11,        1,   152064, 0x67af7e4d
0,         12,         12,        1,   152064, 0x505c3261
0,         13,         13,        1,   152064, 0xa43d015e
0,         14,         14,        1,   152064, 0xad41c1f6
0,         15,         15,        1,   152064, 0x633ba55f
0,         16,         16,        1,   152064, 0xe80634f0
0,         17,         17,        1,   152064, 0x80a07dc9
0,         18,         18,        1,   152064, 0x0e7a3bbf
0,         19,         19,        1,   152064, 0xcb099196
0,         20,         20,        1,   152064, 0x57c96db5
0,         21,         21,        1,   152064, 0xccd422fa
0,         22,         22,        1,   152064, 0x0850b7a7
0,         23,         23,        1,   152064, 0x30e33156
0,         24,         24,        1,   152064, 0x34e13f9a
0,         25,         25,        1,   152064, 0x03d36000
0,         26,         26,        1,   152064, 0xbf7d49da
0,         27,         27,        1,   152064, 0x77336d09
0,         28,         28,        1,   152064, 0xca8be5a9
0,         29,         29,        1,   152064, 0xe57c0b08
0,         30,         30,        1,   152064, 0xbe77c093
0,         31,         31,        1,   152064, 0x6bf1ff05
0,         32,         32,        1,   152064, 0x9142babf
0,         33,         33,        1,   152064, 0x08db8e67
0,         34,         34,        1,   152064, 0x69ac8cb6
0,         35,         35,        1,   152064, 0xaa3b5c88
0,         36,         36,        1,   152064, 0x9bd32638
0,         37,         37,        1,   152064, 0x7972115a
0,         38,         38,        1,   152064, 0x5c1dd47b
0,         39,         39,        1,   152064, 0x8a196e02
0,         40,         40,        1,   152064, 0xa89672bc
0,         41,         41,        1,   152064, 0x27b220e4
0,         42,         42,        1,   152064, 0xfa38dc4a
0,         43,         43,        1,   152064, 0x4784c639
0,         44,         44,        1,   152064, 0xa5e4229a
0,         45,         45,        1,   152064, 0xa986bdfc
0,         46,         46,        1,   152064, 0x2951b47b
0,         47,         47,        1,   152064, 0x4df404a6
0,         48,         48,        1,   152064, 0xc75155e8
0,         49,         49,        1,   152064, 0xfc05248c
0,         50,         50,        1,   152064, 0x5d53da10
0,         51,         51,        1,   152064, 0x284376ec
0,         52,         52,        1,   152064, 0x19fce380
0,         53,         53,        1,   152064, 0x876be6c9
0,         54,         54,        1,   152064, 0x39eb8ff9
0,         55,         55,        1,   152064, 0x289c9543
0,         56,         56,        1,   152064, 0x24dd2356
0,         57,         57,        1,   152064, 0x1dc17d3c
0,         58,         58,        1,   152064, 0xd17c00ac
0,         59,         59,        1,   152064, 0xc2ad54de
0,         60,         60,        1,   152064, 0xbe11ee2f
0,         61,         61,        1,   152064, 0x3db9dc89
0,         62,         62,        1,   152064, 0xac0d7bc2
0,         63,         63,        1,   152064, 0x8dab2dde
0,         64,         64,        1,   152064, 0x566ad225
0,         65,         65,        1,   152064, 0x587c7853
0,         66,         66,        1,   152064, 0x601c9c80
0,         67,         67,        1,   152064, 0x2afaf751
0,         68,         68,        1,   152064, 0x1c9f7e3a
0,         69,         69,        1,   152064, 0x899475bf
0,         70,         70,        1,   152064, 0x0d65c7d9
0,         71,         71,        1,   152064, 0xafd63d12
0,         72,         72,        1,   152064, 0x162e62b9
0,         73,         73,        1,   152064, 0x5c9554be
0,         74,         74,        1,   152064, 0x35fbdaa2
0,         75,         75,        1,   152064, 0x6438cbd8
0,         76,         76,        1,   152064, 0xde0772c9
0,         77,         77,        1,   152064, 0x79f82854
0,         78,         78,        1,   152064, 0x86957840
0,         79,         79,        1,   152064, 0xd9468cbf
0,         80,         80,        1,   152064, 0x23e74609
0,         81,         81,        1,   152064, 0x3919a146
0,         82,         82,        1,   152064, 0xd641078b
0,         83,         83,        1,   152064, 0x24397220
0,         84,         84,        1,   152064, 0xe7fc3a7c
0,         85,         85,        1,   152064, 0x3997154a
0,         86,         86,        1,   152064, 0x2af3952c
0,         87,         87,        1,   152064, 0x274ac07a
0,         88,         88,        1,   152064, 0x288f7b09
0,         89,         89,        1,   152064, 0xe6f9b022
0,         90,         90,        1,   152064, 0xf09e2fbb
0,         91,         91,        1,   152064, 0x7244e477
0,         92,         92,        1,   152064, 0x0dfc72eb
0,         93,         93,        1,   152064, 0x0322b21f
0,         94,         94,        1,   152064, 0x18b08205
0,         95,         95,        1,   152064, 0x6606153e
0,         96,         96,        1,   152064, 0x85186272
0,         97,         97,        1,   152064, 0x3369f064
0,         98,         98,        1,   152064, 0xbe0d5a44
0,         99,         99,        1,   152064, 0x320258bb
0,        100,        100,        1,   152064, 0x4d6fb091
0,        101,        101,        1,   152064, 0xc9bbf5e7
0,        102,        102,        1,   152064, 0x0aa1b69b
0,        103,        103,        1,   152064, 0x85b9ac11
0,        104,        104,        1,   152064, 0xb25ff818
0,        105,        105,        1,   152064, 0xa155dc25
0,        106,        106,        1,   152064, 0xa8e03bfd
0,        107,        107,        1,   152064, 0x0a862956
0,        108,        108,        1,   152064, 0x11b49264
0,        109,        109,        1,   152064, 0xa94e664e
0,        110,        110,        1,   152064, 0x330e0fa2
0,        111,        111,        1,   152064, 0xaf3d9518
0,        112,        112,        1,   152064, 0x0836f2e8
0,        113,        113,        1,   152064, 0xbf6dc578
0,        114,        114,        1,   152064, 0x7b524d20
0,        115,        115,        1,   152064, 0x9ef7677f
0,        116,        116,        1,   152064, 0xeacf3f34
0,        117,        117,        1,   152064, 0xfb4e3dbe
0,        118,        118,        1,   152064, 0xb46e25cb
0,        119,        119,        1,   152064, 0x363c1603
0,        120,        120,        1,   152064, 0x263fc542
0,        121,        121,        1,   152064, 0xf106e548
0,        122,        122,        1,   152064, 0xde43c56a
0,        123,        123,        1,   152064, 0xc2c4770a
0,        124,        124,        1,   152064, 0x122fce19
0,        125,        125,        1,   152064, 0x3ba01434
0,        126,        126,        1,   152064, 0x0e8ce5ee
0,        127,        127,        1,   152064, 0x6ceb82e1
0,        128,        128,        1,   152064, 0xa23ee21c
0,        129,        129,        1,   152064, 0xc6d960f9
0,        130,        130,        1,   152064, 0x0de15258
0,        131,        131,        1,   152064, 0x187b0333
0,        132,        132,        1,   152064, 0x92e6582f
0,        133,        133,        1,   152064, 0xb9586ce0
0,        134,        134,        1,   152064, 0xefd803b5
0,        135,        135,        1,   152064, 0x24eafb29
0,        136,        136,        1,   152064, 0x20c73b14
0,        137,        137,        1,   152064, 0xbd7ceaaa
0,        138,        138,        1,   152064, 0x775216c8
0,        139,        139,        1,   152064, 0xa08971c7
0,        140,        140,        1,   152064, 0xef0ee865
0,        141,        141,        1,   152064, 0x9ac61c2f
0,        142,        142,        1,   152064, 0x52ae8ea9
0,        143,        143,        1,   152064, 0x06571c14
0,        144,        144,        1,   152064, 0x6e78ad33
0,        145,        145,        1,   152064, 0xad01c627
0,        146,        146,        1,   152064, 0xbfe074d3
0,        147,        147,        1,   152064, 0x9357a183
0,        148,        148,        1,   152064, 0x8de7767f
0,        149,        149,        1,   152064, 0xa5e6e76e
0,        150,        150,        1,   152064, 0xa6f646fe
0,        151,        151,        1,   152064, 0x132e99f8
0,        152,        152,        1,   152064, 0xb79f27de
0,        153,        153,        1,   152064, 0x36d3cdcf
0,        154,        154,        1,   152064, 0xdc938336
0,        155,        155,        1,   152064, 0xacaa3a7f
0,        156,        156,        1,   152064, 0xc61a37fd
0,        157,        157,        1,   152064, 0x4fe1ddf0
0,        158,        158,        1,   152064, 0xc0f7d660
0,        159,        159,        1,   152064, 0xd72458ea
0,        160,        160,        1,   152064, 0x6978d123
0,        161,        161,        1,   152064, 0x64e60ccf
0,        162,        162,        1,   152064, 0xaa07004c
0,        163,        163,        1,   152064, 0x07cd1064
0,        164,        164,        1,   152064, 0xa82320e5
0,        165,        165,        1,   152064, 0xaedd8d30
0,        166,        166,        1,   152064, 0x79b082ea
0,        167,        167,        1,   152064, 0x9ed800ab
0,        168,        168,        1,   152064, 0xde592bb4
0,        169,        169,        1,   152064, 0xd966df88
0,        170,        170,        1,   152064, 0xf921988a
0,        171,        171,        1,   152064, 0x557ad9ae
0,        172,        172,        1,   152064, 0xc3f31a9a
0,        173,        173,        1,   152064, 0x65248561
0,        174,        174,        1,   152064, 0x63df4aa6
0,        175,        175,        1,   152064, 0x618da0a9
0,        176,        176,        1,   152064, 0xe6f1c435
0,        177,        177,        1,   152064, 0x9f90c38f
0,        178,        178,        1,   152064, 0xd2853e14
0,        179,        179,        1,   152064, 0x6e0268a9
0,        180,        180,        1,   152064, 0x393712d1
0,        181,        181,        1,   152064, 0x470da25f
0,        182,        182,        1,   152064, 0xaf55cb3d
0,        183,        183,        1,   152064, 0x6935b8b9
0,        184,        184,        1,   152064, 0x5409a15f
0,        185,        185,        1,   152064, 0x09073fee
0,        186,        186,        1,   152064, 0xfb274e82
0,        187,        187,        1,   152064, 0x1a770581
0,        188,        188,        1,   152064, 0x17277d0d
0,        189,        189,        1,   152064, 0xd4dcd982
0,        190,        190,        1,   152064, 0x6b04eaf3
0,        191,        191,        1,   152064, 0x8a3d822e
0,        192,        192,        1,   152064, 0x1b971ec9
0,        193,        193,        1,   152064, 0x14e0c0f6
0,        194,        194,        1,   152064, 0x00667450
0,        195,        195,        1,   152064, 0xd2385902
0,        196,        196,        1,   152064, 0x905da6ab
0,        197,        197,        1,   152064, 0xa3ffb18b
0,        198,        198,        1,   152064, 0x10d48b19
0,        199,        199,        1,   152064, 0xb2c7a3bd
0,        200,        200,        1,   152064, 0x45593e96
0,        201,        201,        1,   152064, 0x47a0b60c
0,        202,        202,        1,   152064, 0x68c6d1b9
0,        203,        203,        1,   152064, 0xbc881fcc
0,        204,        204,        1,   152064, 0x422cc6f2
0,        205,        205,        1,   152064, 0x9b686410
0,        206,        206,        1,   152064, 0x35dc5e86
0,        207,        207,        1,   152064, 0x247bedaa
0,        208,        208,        1,   152064, 0x22b76fd1
0,        209,        209,        1,   152064, 0x67cc7a75
0,        210,        210,        1,   152064, 0xa197521e
0,        211,        211,        1,   152064, 0x428c8662
0,        212,        212,        1,   152064, 0x33dc2c73
0,        213,        213,        1,   152064, 0x5b538903
0,        214,        214,        1,   152064, 0x3c4176b6
0,        215,        215,        1,   152064, 0x774364ba
0,        216,        216,        1,   152064, 0xf237d03e
0,        217,        217,        1,   152064, 0xac8746fb
0,        218,        218,        1,   152064, 0x6b306a84
0,        219,        219,        1,   152064, 0xa2ace513
0,        220,        220,        1,   152064, 0x709c9be7
0,        221,        221,        1,   152064, 0x2403f373
0,        222,        222,        1,   152064, 0x147bf717
0,        223,        223,        1,   152064, 0xe58964c8
0,        224,        224,        1,   152064, 0xa0da36fc
0,        225,        225,        1,   152064, 0x1ac1355c
0,        226,        226,        1,   152064, 0x8a31c9f2
0,        227,        227,        1,   152064, 0x42ba205c
0,        228,        228,        1,   152064, 0xa11b3575
0,        229,        229,        1,   152064, 0xcb35207c
0,        230,        230,        1,   152064, 0x528f6189
0,        231,        231,        1,   152064, 0x34f05bd7
0,        232,        232,        1,   152064, 0x72317356
0,        233,        233,        1,   152064, 0xaabd5028
0,        234,        234,        1,   152064, 0x13dbeb7b
0,        235,        235,        1,   152064, 0x62f1e8a8
0,        236,        236,        1,   152064, 0x1723bfcd
0,        237,        237,        1,   152064, 0x5c083c00
0,        238,        238,        1,   152064, 0x52137894
0,        239,        239,        1,   152064, 0xef1e082c
0,        240,        240,        1,   152064, 0x664b3d53
0,        241,        241,        1,   152064, 0x2eb9b296
0,        242,        242,        1,   152064, 0xd0ca511e
0,        243,        243,        1,   152064, 0x012d4724
0,        244,        244,        1,   152064, 0xa847f5af
0,        245,        245,        1,   152064, 0x483a2fde
0,        246,        246,        1,   152064, 0xd1ab0257
0,        247,        247,        1,   152064, 0x414692c7
0,        248,        248,        1,   152064, 0x0b79df88
0,        249,        249,        1,   152064, 0xdaa2c4a3
0,        250,        250,        1,   152064, 0xd1b44500
0,        251,        251,        1,   152064, 0xfd3d2cf3
0,        252,        252,        1,   152064, 0xfdc0f748
0,        253,        253,        1,   152064, 0xce762a2a
0,        254,        254,        1,   152064, 0x08b63572
0,        255,        255,        1,   152064, 0x5a46a38d
0,        256,        256,        1,   152064, 0x03cee9c0
0,        257,        257,        1,   152064, 0x9ee45473
0,        258,        258,        1,   152064, 0x5a432386
0,        259,        259,        1,   152064, 0x54c83d87
0,        260,        260,        1,   152064, 0xc9caa1de
0,        261,        261,        1,   152064, 0xa28367f1
0,        262,        262,        1,   152064, 0x2607cdf1
0,        263,        263,        1,   152064, 0x06baa8de
0,        264,        264,        1,   152064, 0xf5346e32
0,        265,        265,        1,   152064, 0x6d3e732b
0,        266,        266,        1,   152064, 0x798c584b
0,        267,        267,        1,   152064, 0x4076c948
0,        268,        268,        1,   152064, 0x868cf63a
0,        269,        269,        1,   152064, 0x23107ac5
0,        270,        270,        1,   152064, 0x306f3fe2
0,        271,        271,        1,   152064, 0xbd1d71d6
0,        272,        272,        1,   152064, 0x1429545f
0,        273,        273,        1,   152064, 0xaded29aa
0,        274,        274,        1,   152064, 0x9b455a94
0,        275,        275,        1,   152064, 0xb3774ce7
0,        276,        276,        1,   152064, 0x92580986
0,        277,        277,        1,   152064, 0x0eae2f95
0,        278,        278,        1,   152064, 0x599208b2
0,        279,        279,        1,   152064, 0x4804c04c
0,        280,        280,        1,   152064, 0x5f730e8f
0,        281,        281,        1,   152064, 0x3e501d1e
0,        282,        282,        1,   152064, 0x32100740
0,        283,        283,        1,   152064, 0x62226ff8
0,        284,        284,        1,   152064, 0x7683b622
0,        285,        285,        1,   152064, 0xc3e0aec1
0,        286,        286,        1,   152064, 0xfac12608
0,        287,        287,        1,   152064, 0xb21a5781
0,        288,        288,        1,   152064, 0x8f1e4964
0,        289,        289,        1,   152064, 0x0f62dd6e
0,        290,        290,        1,   152064, 0xac062ac4
0,        291,        291,        1,   152064, 0x1b320f7a
0,        292,        292,        1,   152064, 0x346e7211
0,        293,        293,        1,   152064, 0xe47592f3
0,        294,        294,        1,   152064, 0xa3a7919c
0,        295,        295,        1,   152064, 0xa3580fa6
0,        296,        296,        1,   152064, 0xc73430c1
0,        297,        297,        1,   152064, 0x994a2c18
0,        298,        298,        1,   152064, 0x0b5d8d45
0,        299,        299,        1,   152064, 0x9eed5109
